<svg viewBox="0 0 100.208 100.208"
	xmlns="http://www.w3.org/2000/svg">
	<path d="M50.104,0C22.432,0,0,22.432,0,50.104s22.432,50.104,50.104,50.104s50.104-22.432,50.104-50.104
		S77.776,0,50.104,0z M71.96,38.236c0,0,2.57,4.101,2.57,9.151l-2.57-0.848V38.236z M57.43,21.613c0,0,2.58,4.094,2.58,9.148
		l-2.58-0.68V21.613z M57.423,32.381c2.967,0.333,3.811,4.284,5.196,7.405c1.435,3.232,3.346,5.658,2.831,7.455
		c-0.934,3.232-4.044,4.413-7.179,4.008s-6.725-0.902-6.342-4.262C52.301,43.619,51.382,31.698,57.423,32.381z M44.106,21.072v8.564
		l-2.577,0.583C41.529,25.166,44.106,21.072,44.106,21.072z M38.988,37.195c1.535-1.997,2.545-5.068,4.978-5.093
		c6.61-0.05,3.711,12.218,3.443,15.604c-0.265,3.371-3.157,3.139-6.302,2.852c-3.157-0.286-5.111-0.82-6.148-4.019
		C34.157,44.074,36.35,40.62,38.988,37.195z M29.053,38.236v8.299l-2.577,0.848C26.476,42.334,29.053,38.236,29.053,38.236z
		 M29.336,66.67c-1.886-2.72-6.71-13.367-3.547-16.559c3.164-3.182,9.946,4.162,11.828,6.875c1.89,2.716,1.517,5.447-0.73,7.423
		C34.64,66.381,31.229,69.383,29.336,66.67z M64.96,74.762c-3.761,7.737-6.728,3.926-15.031,3.926
		c-8.296,0-11.066,3.89-15.028-3.926c-2.069-4.098,4.781-7.294,6.989-9.699c2.752-3.006,3.429-8.471,8.038-8.471
		c4.398,0,5.34,5.375,8.092,8.178C60.465,67.254,67.186,70.181,64.96,74.762z M71.606,66.595c-1.678,2.867-3.386,2.645-5.78,0.905
		c-2.401-1.739-6.424-5.787-4.742-8.657c0.737-1.26,3.361-1.56,5.472-3.547c2.706-2.548,5.121-6.546,7.337-4.924
		C77.847,53.264,73.291,63.729,71.606,66.595z" fill="#870f2d"/>
</svg>


