<svg viewBox="0 0 120 120" version="1.1"
   xmlns="http://www.w3.org/2000/svg">
   <g fill="#0097a7" style="fill-rule:evenodd;stroke:none;stroke-width:1">
      <circle cx="72" cy="24" r="8" />
      <path d="m 16,72 0.0038,-0.249179 C 16.135457,67.447838 19.665086,64 24,64 c 4.418278,0 8,3.581722 8,8 v 0 24 c 0,4.41828 -3.581722,8 -8,8 -4.418278,0 -8,-3.58172 -8,-8 v 0 z" />
      <path d="m 16,24 0.0038,-0.249179 C 16.135457,19.447838 19.665086,16 24,16 c 4.418278,0 8,3.581722 8,8 v 0 24 c 0,4.418278 -3.581722,8 -8,8 -4.418278,0 -8,-3.581722 -8,-8 v 0 z" />
      <path d="m 40,24 0.0038,-0.249179 C 40.135457,19.447838 43.665086,16 48,16 c 4.418278,0 8,3.581722 8,8 v 0 48 c 0,4.418278 -3.581722,8 -8,8 -4.418278,0 -8,-3.581722 -8,-8 v 0 z" />
      <path d="m 88,24 0.0038,-0.249179 C 88.135457,19.447838 91.665086,16 96,16 c 4.41828,0 8,3.581722 8,8 v 0 72 c 0,4.41828 -3.58172,8 -8,8 -4.418278,0 -8,-3.58172 -8,-8 v 0 z" />
      <path d="m 64,48 0.0038,-0.249179 C 64.135457,43.447838 67.665086,40 72,40 c 4.418278,0 8,3.581722 8,8 v 0 48 c 0,4.41828 -3.581722,8 -8,8 -4.418278,0 -8,-3.58172 -8,-8 v 0 z" />
      <circle cx="48" cy="96" r="8" />
   </g>
</svg>
